# xmcd
#
# Track frame offsets:
#	150
#	17427
#	33723
#	48159
#	64313
#	81881
#	97361
#	110167
#	125821
#	142321
#	157591
#
# Disc length: 2397 seconds
#
# Revision: 0
# Processed by: cddbd v1.4PL0 Copyright (c) Steve Scherf et al.
# Submitted via: EasyCDDAExtractor 4.6.9.1
#
DISCID=9e095b0b
DTITLE=Dixie Chicks - Dixie Chicks - 1998
DYEAR=1900
DGENRE=Country
TTITLE0=I Can Love You Better
TTITLE1=Loving Arms
TTITLE2=There's Your Trouble
TTITLE3=You Were Mine
TTITLE4=Never Say Die
TTITLE5=Tonight The Heartache's On Me
TTITLE6=Let 'Er Rip
TTITLE7=Once You've Loved Somebody
TTITLE8=I'll Take Care Of You
TTITLE9=Am I The Only One (Who's Ever Felt This Way)
TTITLE10=Give It Up Or Let Me Go
EXTD=
EXTT0=
EXTT1=
EXTT2=
EXTT3=
EXTT4=
EXTT5=
EXTT6=
EXTT7=
EXTT8=
EXTT9=
EXTT10=
PLAYORDER=
